<svg id="Layer_5" data-name="Layer 5" xmlns="http://www.w3.org/2000/svg" viewBox="0 0 563.81 563.81"><defs><style>.cls-1,.cls-3{opacity:0.25;}.cls-2,.cls-3{fill:#fff;}.cls-4{fill:none;stroke:#fff;stroke-miterlimit:10;stroke-width:7px;opacity:0.5;}</style></defs><title>avatar user profile</title><g class="cls-1"><path class="cls-2" d="M423.77,551.42A162.08,162.08,0,0,0,261.69,713.5c0,2.54.07,5.07.18,7.59h323.8c.12-2.52.19-5.05.19-7.59A162.08,162.08,0,0,0,423.77,551.42Z" transform="translate(-136.87 -258.1)"/></g><path class="cls-2" d="M413.77,543.42A162.08,162.08,0,0,0,251.69,705.5c0,2.54.07,5.07.18,7.59h323.8c.12-2.52.19-5.05.19-7.59A162.08,162.08,0,0,0,413.77,543.42Z" transform="translate(-136.87 -258.1)"/><circle class="cls-3" cx="283.9" cy="187.14" r="81.32"/><circle class="cls-2" cx="276.9" cy="182.14" r="81.32"/><circle class="cls-4" cx="281.9" cy="281.9" r="278.4"/></svg>