<svg id="Layer_5" data-name="Layer 5" xmlns="http://www.w3.org/2000/svg" viewBox="0 0 337.16 365.18"><defs><style>.cls-1,.cls-3{opacity:0.25;}.cls-2,.cls-3{fill:#fff;}</style></defs><title>avatar user profile</title><g class="cls-1"><path class="cls-2" d="M426.77,554.42A162.08,162.08,0,0,0,264.69,716.5c0,2.54.07,5.07.18,7.59h323.8c.12-2.52.19-5.05.19-7.59A162.08,162.08,0,0,0,426.77,554.42Z" transform="translate(-251.69 -358.91)"/></g><path class="cls-2" d="M413.77,543.42A162.08,162.08,0,0,0,251.69,705.5c0,2.54.07,5.07.18,7.59h323.8c.12-2.52.19-5.05.19-7.59A162.08,162.08,0,0,0,413.77,543.42Z" transform="translate(-251.69 -358.91)"/><circle class="cls-3" cx="175.08" cy="91.32" r="81.32"/><circle class="cls-2" cx="162.08" cy="81.32" r="81.32"/></svg>