<svg id="Layer_1" data-name="Layer 1" xmlns="http://www.w3.org/2000/svg" viewBox="0 0 201.09 214.62"><defs><style>.cls-1{fill:#ffdcd2;}.cls-2{fill:#f78c74;}.cls-3{fill:#ffc3a1;}.cls-4{fill:#775f5f;}.cls-5{fill:#8db8db;}.cls-6{fill:#fff;}.cls-7{fill:#440829;}.cls-8{fill:#6297cc;}.cls-9{fill:#564d4e;}</style></defs><title>icon avtr 1</title><path class="cls-1" d="M859.61,533.08A100.55,100.55,0,1,1,960.16,633.63,100.55,100.55,0,0,1,859.61,533.08" transform="translate(-859.61 -432.53)"/><path class="cls-2" d="M907.71,532.28a1.89,1.89,0,0,0-.2-.2,10.77,10.77,0,0,0,2.19,7.32C909.92,537.1,910.47,534.47,907.71,532.28Z" transform="translate(-859.61 -432.53)"/><path class="cls-3" d="M958.9,576.73a1.18,1.18,0,0,1,.27.06,17.81,17.81,0,0,1,1.86-.07c.74,0,1.48-.06,2.22-.12l.56-.13c11.15-2,21.19-8.82,27.81-17.81,4.57-6.82,6.67-14.8,9.08-22.54.63-1.62.9-3.63,2.11-4.9,1.16-.16.52,1.94.46,2.58-.75,3.16-1.54,6.39-2.46,9.59a8.68,8.68,0,0,1,3.45-2.35,9.68,9.68,0,0,0,.88-4,12.64,12.64,0,0,1,2.11-5.06c.69-.84,1.94-3.91,3.27-3a.77.77,0,0,1,.11.91c-.07.09-.15.17-.23.26.67,3.3-1,6.18-3.12,8.55a.22.22,0,0,0,0,.08,5.17,5.17,0,0,1-2.92,4.2,2.57,2.57,0,0,1-.54.16c-1.1.78-2.24,1.5-3.34,2.28a.52.52,0,0,1-.32.07c-.39,1.25-.81,2.48-1.27,3.7,5.64.5,9.58-2.71,12-7.76,4.35-7.7,5.41-25.89-6.59-12.58-1.26,1.49-2.29.5-1.4-1.06l.12-.2a1.45,1.45,0,0,1-.12-.25,50.71,50.71,0,0,1-2.64-22.08c-1.24-2.89-2.78-6.13-2.46-9.34a8.18,8.18,0,0,0-1.51.48,24.48,24.48,0,0,1-8.92,1.56c-2-.2-8.3.16-8-2.8.49-1.1,1.89-1.39,2.81-2.05a43.08,43.08,0,0,0,7.15-5.24,37.22,37.22,0,0,1-10.12,3.22c-1.35.12-2.93.81-4.18.11a1.11,1.11,0,0,1-.07-1.63c1.41-1.11,3-1.94,4.34-3.07a20.8,20.8,0,0,0,2.37-1.93,34.93,34.93,0,0,1-8.67,1.93c-2.14,1.08-3.79,3-6.07,3.82-4,1.7-8.39,1.92-12.65,1.83-1,0-2.06-.56-2-1.65.19-1.57,1.86-2.43,2.9-3.46.69-.59,1.34-1.22,2-1.86a67.38,67.38,0,0,1-8.61,1.6c-3.86,4.24-7.82,8.59-13.09,11.11-3.15,1.56-6.6,2.38-9.94,3.43-1.06.43-2.64-.1-2.35-1.46s1-2.44,1.45-3.69a44.69,44.69,0,0,1-7.44,6.35l-.61.47.06.38a49.86,49.86,0,0,1,.41,10.57,102.55,102.55,0,0,1-1.79,12.06c-.3.89,0,2.7-.87,3.25.27.84.14,1.49-.64,1.72-.86.06-1.32-.91-1.73-1.51-7.2-10.48-10.83-2.94-8,6,1.76,6.93,6.47,16.43,14.86,14.83-.56-1.43-1.09-2.87-1.61-4.32a11.31,11.31,0,0,1-3.4-1.62l-.08,0a3.76,3.76,0,0,1-1.18-.12c-2.55-.83-3-2.26-3-3.94a12.77,12.77,0,0,1-2.63-8.73,4,4,0,0,1-.3-.29.78.78,0,0,1,1-1.17c2.8,1.89,5.71,5.48,3.52,8.85-.89,2.08,1.22,3.56,3.07,3.75l.06,0a4.44,4.44,0,0,1,2,.89c-1.21-3.51-2.65-7.06-2.85-10.76a.81.81,0,0,1,1.06-.74c1.36,1,1.44,3.3,2.09,4.8,3.34,9.95,6.29,21,14.44,28.17a52.76,52.76,0,0,0,15.72,9.17A47.3,47.3,0,0,0,958.9,576.73Zm16.36-78.08c2.12-.93,4.38.37,6.08,1.6,1.14.64,6.28,5.54,4,6.47a.88.88,0,0,1-1,.1c-2.17-.74-4.58-.84-6.76-1.64-1.36-.47-2.89-.95-3.76-2.18A3.18,3.18,0,0,1,975.26,498.65Zm-1.4,19.53c1.8-2.14,5.2-.91,6.14,1.46s.42,6.24-2.1,7.17c-1.47.57-2.94-.47-3.69-1.68-.55-.94-.35-2.08-.5-3.12C973.6,520.78,973.06,519.27,973.86,518.18Zm-22.12,20.09c.59-.22,1.2.12,1.79.21a23.64,23.64,0,0,0,7.12.34c1.71-.2,3.11-1,4.74-1.2a.8.8,0,0,1,.5,1.23h0a1.09,1.09,0,0,1-.29.28,7.56,7.56,0,0,1-6.83,4.71c-2.87.07-5.3-2.23-6.93-4.37C951.42,539.23,951.23,538.53,951.74,538.27Zm.25,14.82a43.93,43.93,0,0,0,9.86,0,30.06,30.06,0,0,0,8.73-2.82,28.09,28.09,0,0,0,2.62-1.49c-.93-.59-1.5-1.25-.62-1.95,1.58-.49,3,1.15,4,2.22.16.23.41.37.5.65a.62.62,0,0,1-.77.78,4.14,4.14,0,0,0-.92-.57.91.91,0,0,1-.33.37c-1.35.75-3,1.4-4.34,2a39.47,39.47,0,0,1-15.6,2.74,16,16,0,0,1-4.48-.62C949.45,553.36,950.81,552.19,952,553.09ZM932.5,506.72c-2.26-.93,2.88-5.83,4-6.47,1.7-1.23,4-2.53,6.08-1.6A3.18,3.18,0,0,1,944,503c-.87,1.23-2.4,1.71-3.76,2.18-2.18.8-4.59.9-6.75,1.64A.89.89,0,0,1,932.5,506.72ZM944.15,522c-.15,1,.06,2.18-.49,3.12-.76,1.21-2.23,2.25-3.7,1.68-2.52-.93-3.07-4.94-2.1-7.17s4.34-3.6,6.14-1.46C944.8,519.27,944.26,520.78,944.15,522Z" transform="translate(-859.61 -432.53)"/><path class="cls-2" d="M1009.88,530.83a16.77,16.77,0,0,0-2.39,3.23,4.76,4.76,0,0,0-.57,2.31,8.89,8.89,0,0,0,.29,1.36C1008.73,535.66,1010.2,533.39,1009.88,530.83Z" transform="translate(-859.61 -432.53)"/><path class="cls-3" d="M940.44,598.77c1.73,1.06,3.14,2.73,5.07,3.45,10.4,4.73,23.15,2.83,32.17-3.94-.26-3.11-.56-6.21-.89-9.36a38.21,38.21,0,0,1-.17-4.14,4.27,4.27,0,0,1,0-.7c-1-.68-.27-2.64-.26-3.68.2-1.17.45-2.34.75-3.49-6.16,5.86-13.79,10.75-22.58,10.09-4.14-.2-7.73-2.51-10.57-5.38a28.57,28.57,0,0,1-3.11-3c.06.47.11.94.16,1.4,0,.92.5,3.17-.17,4,.17,3.67-.16,7.37-.28,11C940.55,596.3,940.5,597.54,940.44,598.77Z" transform="translate(-859.61 -432.53)"/><path class="cls-2" d="M958.61,543c2.36.06,4.42-1.57,5.73-3.37a18.61,18.61,0,0,1-10.32.66A6.43,6.43,0,0,0,958.61,543Z" transform="translate(-859.61 -432.53)"/><path class="cls-4" d="M941.67,500.35c-3-.57-6.19,2.65-7.85,4.81C935.4,504.65,945.47,503,941.67,500.35Z" transform="translate(-859.61 -432.53)"/><path class="cls-4" d="M984,505.16c-1.66-2.16-4.87-5.38-7.85-4.81C972.39,503,982.46,504.65,984,505.16Z" transform="translate(-859.61 -432.53)"/><path class="cls-4" d="M1013.93,503.37c-.59,2.75-1.16,5.5-1.79,8.25-.69,3.06-1.44,6.1-2.33,9.11a4.93,4.93,0,0,0-.36,1.63c-.34.08-.7.18-1.07.29a13.05,13.05,0,0,0-4,3.06c-.64-2.3-1.29-4.6-1.76-6.94a37.94,37.94,0,0,1-.29-14.13c-1-3.06-2.89-6-2.61-9.32,0-.48,0-1.16-.44-1.42-.9-.81-2.9.64-4.06.81a25.58,25.58,0,0,1-13.42.77c4-2,8.13-4.28,10.77-8,.63-.94-.22-2.3-1.32-1.72-1.21,1.44-3.08,2-4.79,2.68A26.5,26.5,0,0,1,978,490a29.4,29.4,0,0,0,5.55-4.27,22.5,22.5,0,0,0,3.17-4c1.18-1.05,2.06-2.26.92-2.79a1,1,0,0,0-.55.16,27.45,27.45,0,0,1-4.2,2.85c-3,1.53-6.54,1.81-9.75,2.69-5,3.89-11.45,5.43-17.77,5.31a55.32,55.32,0,0,0,5.5-5.54.91.91,0,0,0,.14-.3c.16-.16.31-.32.45-.49a15.42,15.42,0,0,0,3-2,8.21,8.21,0,0,0,1.74-2,.38.38,0,0,0-.05-.44.35.35,0,0,0-.43,0c-1.76.83-3.41,1.91-5.23,2.66-3.64,1.45-7.52,2-11.33,2.84a2,2,0,0,0-1.76,1.25c-5.28,7.15-13.81,11.09-22.2,13.48.92-2.59,2.08-5.1,3-7.69.2-.54.57-1.19.15-1.73-.54-.69-1.44-.23-1.8.4a34.57,34.57,0,0,1-3,3.88,51,51,0,0,1-6.57,6.21c-.4.45-1.28.85-1.89,1.36a1.24,1.24,0,0,0-.68,1.27,56.72,56.72,0,0,1-.44,19.66c-.21,1.52-.53,3-.82,4.54a19.59,19.59,0,0,0-3.79-3.86,7.85,7.85,0,0,0-1-.66,9.55,9.55,0,0,1-.62-1.45c-.74-2.44-1.38-5.09-1.91-7.62s-.85-5.27-1.23-7.91c-.23-1.84-1.61-2.49-3.08-1.31.46-3,.73-6,1.3-9a83.6,83.6,0,0,1,7-15.92c7.91-13.41,19.73-26.14,35.65-29.15a46.34,46.34,0,0,1,15.93-.54,1,1,0,0,0,.75.09c1,.14,2,.53,2.93.09,1.28-1.44-.72-2.13-3.28-2.49-1.15-1-2.33-2-3.39-3.15,11.91,2,24.56,6.1,33.08,15.1a43.23,43.23,0,0,1,6.81,10.6c.24.59.59,1.36,1.3,1.42a2.36,2.36,0,0,0,.29,0c.37.18.79.31,1.15.49C1014,476.87,1016.8,491.09,1013.93,503.37Z" transform="translate(-859.61 -432.53)"/><path class="cls-2" d="M978.21,573.74a36.47,36.47,0,0,1-12.58,4.8,24.08,24.08,0,0,1-6.33.5,1.31,1.31,0,0,1-.73.12,52.09,52.09,0,0,1-18.77-5.34l.18.53a6.23,6.23,0,0,1,.44.65c2,2.74,3.25,6.16,6.13,8.15,9.68,7.28,21.48.7,29.07-6.46.8-.72,1.56-1.48,2.32-2.25C978,574.2,978.11,574,978.21,573.74Z" transform="translate(-859.61 -432.53)"/><path class="cls-5" d="M996.13,629.79c1-2,2-4.34,1.56-6.66-2.43-7.47-7.16-14.09-11.74-20.35-1.6-2.08-3-4.33-4.55-6.41-.63-2.14,6.33,4.85,6.5,5.38,2.05,2.65,4,5.4,5.85,8.25.19-.17.37-.33.51-.48a31.06,31.06,0,0,0,4.84-6.4c1.55-2.52-.45-5.23-1.85-7.22a85,85,0,0,0-9.76-11.4c-2.51-2.6-5.4-4.79-8.06-7.22-.32,1.1-.59,2.21-.8,3.29-.29.76-.18,2.26-.64,3.09.82,1.13.92,4.6,1.12,5.37,1,9.16,1.42,18.3,1.88,27.48q.4,10.57.3,21.16c-.18.86.11,4.6-.28,6.84q3.18-.18,6.38-.48c.12-.21.25-.4.36-.56.77-1.13,1.42-2.2,2.15-3.33C992.08,636.75,994.27,633.37,996.13,629.79Z" transform="translate(-859.61 -432.53)"/><path class="cls-5" d="M1025.13,630.12a22.93,22.93,0,0,1-1.87,1.6c-7.94,6.25-17.31,9.45-27.08,11.14q-3.16.55-6.36.91a3.69,3.69,0,0,1,.41-.56c2.15-3.14,4.33-6.29,6.36-9.52A23.76,23.76,0,0,0,1000,626a9,9,0,0,0-.12-3.93,54.91,54.91,0,0,0-3.42-7.49c-.5-.93-1-1.85-1.58-2.76a43.65,43.65,0,0,0,4.67-4.95c2.58-3.3,3.54-6.93.85-10.5-.65-1-1.34-2-2-3a117.47,117.47,0,0,1,11.4,10.45c.27.28.53.57.78.86A86.86,86.86,0,0,1,1020.94,620a63.9,63.9,0,0,1,4.1,9.9A1.45,1.45,0,0,0,1025.13,630.12Z" transform="translate(-859.61 -432.53)"/><path class="cls-6" d="M977.88,600.79a32.27,32.27,0,0,1-4.47,2.65,36.09,36.09,0,0,1-14.82,3.71c-6.15-.08-12.64-1.44-17.46-5.47a8,8,0,0,1-.78-.74c-.45,10.32-.84,20.64-.75,31,0,2.94,0,5.87.07,8.81a5,5,0,0,1,0,1.27c0,.45,0,.89,0,1.34a1.62,1.62,0,0,1,0,.58c10.39.74,20.82,1.1,31.2,1,2.67-.08,5.38-.17,8.1-.3-.05-.58,0-1.19,0-1.76.13-3,.17-5.93.19-8.89.07-8.18-.08-16.36-.6-24.51C978.31,606.52,978.11,603.65,977.88,600.79Z" transform="translate(-859.61 -432.53)"/><path class="cls-5" d="M929.14,643l-.58,0c-2-.26-4-.56-6.06-.92a79.92,79.92,0,0,1-20-5.85A44.83,44.83,0,0,1,891.77,629h0a13.38,13.38,0,0,1,.21-1.87c1.58-8.78,8-17.38,15.56-24.81a144.42,144.42,0,0,1,12.75-11.08c-1.08,1.37-2.12,2.76-3.1,4.19-4.58,5.68,1.43,11.9,6.15,15.14-.54.77-1.06,1.56-1.55,2.36a27.8,27.8,0,0,0-3.11,6.77,0,0,0,0,0,0,0,18.85,18.85,0,0,0-.8,5.47C919,632.15,924.33,637.89,929.14,643Z" transform="translate(-859.61 -432.53)"/><path class="cls-5" d="M939,590a47.94,47.94,0,0,1,.73-5.85,1,1,0,0,1-.36-.6,61.25,61.25,0,0,0-1.23-7.33c-1.15.9-2.31,1.88-3.35,2.81-5.66,5.29-11.28,10.93-15.6,17.36-3.72,4,.62,8.39,3.68,11.15.39.45,1.17.86,1.67,1.36,1.24-1.65,2.54-3.23,3.8-4.74a99.27,99.27,0,0,1,6.89-7.46c.26-.21.49-.54.85-.54s.24.44.08.65C934,600,931.71,603,929.42,606c-14.1,18.44-11.11,20.44,2.08,37.23,2,.18,4,.34,5.92.49a39.17,39.17,0,0,1,0-5.42c0-.41.07-.83.09-1.24-.13-4.46-.14-8.92-.09-13.38C937.57,612.47,938.13,601.23,939,590Z" transform="translate(-859.61 -432.53)"/><path class="cls-7" d="M1023.85,620.51c-6.79-14.14-17.9-24.38-30.2-33.72a7.11,7.11,0,0,0-2-1.26c-.95-1-1.93-2-2.92-2.92a70.55,70.55,0,0,0-8.21-6.84,3.1,3.1,0,0,0-.49-.36c.31-.89.65-1.78,1-2.62a14.61,14.61,0,0,1,.65-1.32,59.07,59.07,0,0,0,9.11-8,42.76,42.76,0,0,0,7.32-12.31c1.06.15,2.28.12,2.87.22,5,.22,9-3.34,11.16-7.59,3.05-4.8,7.25-21.09-.57-21.62.18-.54.28-1.15.45-1.58q1.31-4.62,2.41-9.3c1.11-5,2.47-9.95,2.65-15.06.43-11.23-4.38-23-15.87-26.6a1.73,1.73,0,0,0-.66-.14c-1-3.88-7.66-12.39-8.88-13.33a32.15,32.15,0,0,0-4.81-3.82,68.31,68.31,0,0,0-16.65-7.83,82.84,82.84,0,0,0-8.93-2.14c-1.78-.23-3.78-1.14-5.52-.4-2,1.37,2,3.8,3.16,5.21-1.8-.1-3.42-.1-4-.13a48.18,48.18,0,0,0-34.07,14.16c-7.76,8-14.49,17.44-18.22,28-.85,3.78-2,7.48-2.74,11.29-.42,2.26-1.52,6.57,2.35,5.31.62,5.53,1.46,11.3,4,16.29a4.8,4.8,0,0,0-5.11,4c-1.27,5.91,1.12,12,3.33,17.42,2,4.28,5.62,8.28,10.41,9.19a5.85,5.85,0,0,0,2.6-.07h-.07a13.58,13.58,0,0,0,2-.6,49.13,49.13,0,0,0,4.38,8.46,41.92,41.92,0,0,0,12.74,11.62,17.91,17.91,0,0,1,.91,2.27l-.3.19a42.1,42.1,0,0,0-3.5,2.73,124.92,124.92,0,0,0-9.53,9.31l-.07,0c-12.5,7.09-27,20.91-32.71,34.17a31.31,31.31,0,0,0-1.57,5.44,3.83,3.83,0,0,0,.28,3.21.91.91,0,0,0,.23.21,4.33,4.33,0,0,0,1.12,1.63c17.05,16.12,50.5,14.84,72.8,15.85,20.5-.07,47.08-.46,62.54-15.73a1.1,1.1,0,0,0,.18-1C1028,628.75,1024.32,621.71,1023.85,620.51Zm-118-106.92c-.58-2.61-.85-5.27-1.23-7.91-.23-1.83-1.6-2.5-3.08-1.31.46-3,.73-6,1.3-9a83,83,0,0,1,7-15.92c7.91-13.42,19.73-26.14,35.65-29.15a46.59,46.59,0,0,1,15.93-.54,1,1,0,0,0,.75.09c1,.15,2,.53,2.94.1,1.27-1.45-.73-2.15-3.29-2.5-1.15-1-2.33-2-3.38-3.15,11.9,2,24.55,6.1,33.06,15.1A43,43,0,0,1,998.32,470c.24.58.58,1.34,1.3,1.41a1.27,1.27,0,0,0,.29,0c.37.19.79.32,1.15.5,12.88,5,15.74,19.21,12.86,31.49-1.24,5.82-2.42,11.65-4.11,17.36a5.21,5.21,0,0,0-.37,1.64,10.53,10.53,0,0,0-1.05.29,12.67,12.67,0,0,0-4,3.06c-.64-2.31-1.28-4.61-1.76-7a37.67,37.67,0,0,1-.29-14.12c-1-3.06-2.89-6-2.61-9.32,0-.48,0-1.16-.44-1.41-.9-.82-2.9.63-4.06.8a25.58,25.58,0,0,1-13.42.77c4-2,8.13-4.28,10.77-8,.63-.94-.22-2.3-1.32-1.72-1.21,1.44-3.08,2-4.79,2.67A26.26,26.26,0,0,1,978,490a29.3,29.3,0,0,0,5.56-4.28,22.87,22.87,0,0,0,3.17-4c1.18-1.05,2.06-2.26.92-2.79a1.08,1.08,0,0,0-.55.15,25,25,0,0,1-4.2,2.85c-3,1.53-6.53,1.82-9.75,2.7-5,3.89-11.45,5.43-17.77,5.31a57.51,57.51,0,0,0,5.5-5.54,1.2,1.2,0,0,0,.15-.3l.44-.48a15.62,15.62,0,0,0,3-2.05,8,8,0,0,0,1.73-2,.34.34,0,0,0,0-.44.35.35,0,0,0-.42,0c-1.77.84-3.42,1.92-5.24,2.66-3.63,1.45-7.53,2-11.34,2.84a2,2,0,0,0-1.75,1.26c-5.28,7.16-13.82,11.09-22.2,13.48.92-2.59,2.08-5.09,3-7.69.21-.54.57-1.19.15-1.73-.54-.69-1.44-.23-1.8.4a34.57,34.57,0,0,1-3,3.88,51,51,0,0,1-6.57,6.21,21.94,21.94,0,0,1-1.89,1.36,1.27,1.27,0,0,0-.69,1.28,56.37,56.37,0,0,1-.43,19.64c-.21,1.53-.53,3-.82,4.55a17.27,17.27,0,0,0-4.82-4.52,9.55,9.55,0,0,1-.62-1.45C907,518.76,906.36,516.11,905.83,513.59Zm25.32,51.52c-8.15-7.13-11.1-18.22-14.44-28.17-.65-1.5-.73-3.79-2.09-4.8a.81.81,0,0,0-1.06.74c.2,3.7,1.64,7.25,2.85,10.76a4.44,4.44,0,0,0-2-.89l-.06,0c-1.85-.19-4-1.67-3.07-3.75,2.19-3.37-.72-7-3.52-8.85a.78.78,0,0,0-1,1.17,4,4,0,0,0,.3.29,12.77,12.77,0,0,0,2.63,8.73c0,1.68.4,3.11,3,3.94a3.76,3.76,0,0,0,1.18.12l.08,0a11.31,11.31,0,0,0,3.4,1.62c.52,1.45,1,2.89,1.61,4.32-8.39,1.6-13.1-7.9-14.86-14.83-2.82-8.94.81-16.48,8-6,.41.6.87,1.57,1.73,1.51.78-.23.91-.88.64-1.72.82-.55.57-2.36.87-3.25A102.55,102.55,0,0,0,917.05,514a49.86,49.86,0,0,0-.41-10.57l-.06-.38.61-.47a44.69,44.69,0,0,0,7.44-6.35c-.43,1.25-1.12,2.41-1.45,3.69s1.29,1.89,2.35,1.46c3.34-1,6.79-1.87,9.94-3.43,5.27-2.52,9.23-6.87,13.09-11.11a67.38,67.38,0,0,0,8.61-1.6c-.63.64-1.28,1.27-2,1.86-1,1-2.71,1.89-2.9,3.46-.08,1.09,1,1.68,2,1.65,4.26.09,8.68-.13,12.65-1.83,2.28-.86,3.93-2.74,6.07-3.82a34.93,34.93,0,0,0,8.67-1.93,20.8,20.8,0,0,1-2.37,1.93c-1.38,1.13-2.93,2-4.34,3.07a1.11,1.11,0,0,0,.07,1.63c1.25.7,2.83,0,4.18-.11A37.22,37.22,0,0,0,989.33,488a43.08,43.08,0,0,1-7.15,5.24c-.92.66-2.32.95-2.81,2.05-.31,3,6,2.6,8,2.8a24.48,24.48,0,0,0,8.92-1.56,8.18,8.18,0,0,1,1.51-.48c-.32,3.21,1.22,6.45,2.46,9.34a50.71,50.71,0,0,0,2.64,22.08,1.45,1.45,0,0,0,.12.25l-.12.2c-.89,1.56.14,2.55,1.4,1.06,12-13.31,10.94,4.88,6.59,12.58-2.42,5-6.36,8.26-12,7.76.46-1.22.88-2.45,1.27-3.7a.52.52,0,0,0,.32-.07c1.1-.78,2.24-1.5,3.34-2.28a2.57,2.57,0,0,0,.54-.16,5.17,5.17,0,0,0,2.92-4.2.22.22,0,0,1,0-.08c2.15-2.37,3.79-5.25,3.12-8.55.08-.09.16-.17.23-.26a.77.77,0,0,0-.11-.91c-1.33-1-2.58,2.11-3.27,3a12.64,12.64,0,0,0-2.11,5.06,9.68,9.68,0,0,1-.88,4,8.68,8.68,0,0,0-3.45,2.35c.92-3.2,1.71-6.43,2.46-9.59.06-.64.7-2.74-.46-2.58-1.21,1.27-1.48,3.28-2.11,4.9-2.41,7.74-4.51,15.72-9.08,22.54-6.62,9-16.66,15.84-27.81,17.81l-.56.13c-.74.06-1.48.11-2.22.12a17.81,17.81,0,0,0-1.86.07,1.18,1.18,0,0,0-.27-.06,47.3,47.3,0,0,1-12-2.45A52.76,52.76,0,0,1,931.15,565.11ZM909.7,539.4a10.77,10.77,0,0,1-2.19-7.32,1.89,1.89,0,0,1,.2.2C910.47,534.47,909.92,537.1,909.7,539.4Zm97.22-3a4.76,4.76,0,0,1,.57-2.31,16.77,16.77,0,0,1,2.39-3.23c.32,2.56-1.15,4.83-2.67,6.9A8.89,8.89,0,0,1,1006.92,536.37Zm-66,47.65c.67-.84.12-3.09.17-4,0-.46-.1-.93-.16-1.4a28.57,28.57,0,0,0,3.11,3c2.84,2.87,6.43,5.18,10.57,5.38,8.79.66,16.42-4.23,22.58-10.09-.3,1.15-.55,2.32-.75,3.49,0,1-.76,3,.26,3.68a4.27,4.27,0,0,0,0,.7,38.21,38.21,0,0,0,.17,4.14c.33,3.15.63,6.25.89,9.36-9,6.77-21.77,8.67-32.17,3.94-1.93-.72-3.34-2.39-5.07-3.45.06-1.23.11-2.47.17-3.71C940.73,591.39,941.06,587.69,940.89,584Zm34.73-7.33c-7.59,7.16-19.39,13.74-29.07,6.46-2.88-2-4.09-5.41-6.13-8.15a6.23,6.23,0,0,0-.44-.65l-.18-.53a52.09,52.09,0,0,0,18.77,5.34,1.31,1.31,0,0,0,.73-.12,24.08,24.08,0,0,0,6.33-.5,36.47,36.47,0,0,0,12.58-4.8c-.1.23-.19.46-.27.7C977.18,575.21,976.42,576,975.62,576.69ZM928.55,643c-8.79-1.15-17.83-3-26-6.77A45.08,45.08,0,0,1,891.76,629h0a17.78,17.78,0,0,1,.22-1.88c2.45-13.62,16.7-26.85,28.31-35.87-1.08,1.36-2.12,2.75-3.1,4.18-4.58,5.68,1.44,11.9,6.15,15.14-3.08,4.39-5.51,9.24-5.47,14.63,1.12,7,6.46,12.69,11.26,17.84Zm9-5.91c0,.41,0,.83-.09,1.24a39.17,39.17,0,0,0,0,5.42c-2-.15-3.95-.31-5.92-.49-13.19-16.79-16.18-18.79-2.08-37.23,2.29-3,4.58-6.06,6.73-9.19.16-.21.26-.57-.08-.65s-.59.33-.85.54a99.27,99.27,0,0,0-6.89,7.46c-1.26,1.51-2.56,3.09-3.8,4.74-.5-.5-1.28-.91-1.67-1.36-3.06-2.76-7.4-7.14-3.68-11.15,4.32-6.43,9.94-12.07,15.6-17.36,1-.93,2.2-1.91,3.35-2.81a61.25,61.25,0,0,1,1.23,7.33,1,1,0,0,0,.36.6A47.94,47.94,0,0,0,939,590c-.86,11.21-1.42,22.45-1.56,33.68C937.38,628.16,937.39,632.62,937.52,637.08ZM979.06,634c0,3-.06,5.93-.19,8.89,0,.57-.06,1.18,0,1.76-2.72.13-5.43.22-8.1.3-10.38.08-20.81-.28-31.2-1a1.62,1.62,0,0,0,0-.58c0-.45,0-.89,0-1.34a5,5,0,0,0,0-1.27c-.07-2.94-.07-5.87-.07-8.81-.09-10.32.3-20.64.75-31a8,8,0,0,0,.78.74c4.82,4,11.31,5.39,17.46,5.47a36.09,36.09,0,0,0,14.82-3.71,32.27,32.27,0,0,0,4.47-2.65c.23,2.86.43,5.73.58,8.67C979,617.61,979.13,625.79,979.06,634ZM987.39,644q-3.2.3-6.38.48c.39-2.24.1-6,.28-6.84q.09-10.59-.3-21.16c-.46-9.18-.86-18.32-1.88-27.48-.2-.77-.3-4.24-1.12-5.37.46-.83.35-2.33.64-3.09.21-1.08.48-2.19.8-3.29,2.66,2.43,5.55,4.62,8.06,7.22a85,85,0,0,1,9.76,11.4c1.4,2,3.4,4.7,1.85,7.22a31.06,31.06,0,0,1-4.84,6.4c-.14.15-.32.31-.51.48-1.82-2.85-3.8-5.6-5.85-8.25-.17-.53-7.13-7.52-6.5-5.38,1.55,2.08,3,4.33,4.55,6.41,4.58,6.26,9.31,12.88,11.74,20.35.44,2.32-.55,4.62-1.56,6.66-1.86,3.58-4,7-6.23,10.35-.73,1.13-1.38,2.2-2.15,3.33C987.64,643.63,987.51,643.82,987.39,644Zm35.87-12.31c-9.64,7.6-21.4,10.68-33.44,12a3.69,3.69,0,0,1,.41-.56c2.15-3.15,4.33-6.28,6.36-9.52,2.07-3.44,4.36-7.52,3.27-11.65a60,60,0,0,0-5-10.25,44.61,44.61,0,0,0,4.68-4.94c2.56-3.3,3.54-6.93.83-10.5-.64-1-1.33-2-2-3a108.66,108.66,0,0,1,12.19,11.31A86.32,86.32,0,0,1,1020.94,620a62.89,62.89,0,0,1,4.09,9.9,1.09,1.09,0,0,0,.1.25A22.93,22.93,0,0,1,1023.26,631.72Z" transform="translate(-859.61 -432.53)"/><path class="cls-7" d="M937.86,519.64c-1,2.23-.42,6.24,2.1,7.17,1.47.57,2.94-.47,3.7-1.68.55-.94.34-2.08.49-3.12.11-1.23.65-2.74-.15-3.83C942.2,516,938.81,517.27,937.86,519.64Z" transform="translate(-859.61 -432.53)"/><path class="cls-7" d="M944,503a3.18,3.18,0,0,0-1.38-4.35c-2.12-.93-4.38.37-6.08,1.6-1.14.64-6.28,5.54-4,6.47a.89.89,0,0,0,1,.1c2.16-.74,4.57-.84,6.75-1.64C941.58,504.71,943.11,504.23,944,503Zm-2.31-2.65c3.8,2.68-6.27,4.3-7.85,4.81C935.48,503,938.69,499.78,941.67,500.35Z" transform="translate(-859.61 -432.53)"/><path class="cls-7" d="M974.21,525.13c.75,1.21,2.22,2.25,3.69,1.68,2.52-.93,3.07-4.94,2.1-7.17s-4.34-3.6-6.14-1.46c-.8,1.09-.26,2.6-.15,3.83C973.86,523.05,973.66,524.19,974.21,525.13Z" transform="translate(-859.61 -432.53)"/><path class="cls-7" d="M977.64,505.18c2.18.8,4.59.9,6.76,1.64a.88.88,0,0,0,1-.1c2.26-.93-2.88-5.83-4-6.47-1.7-1.23-4-2.53-6.08-1.6a3.18,3.18,0,0,0-1.38,4.35C974.75,504.23,976.28,504.71,977.64,505.18Zm-1.45-4.83c3-.57,6.19,2.65,7.85,4.81C982.46,504.65,972.39,503,976.19,500.35Z" transform="translate(-859.61 -432.53)"/><path class="cls-7" d="M951.85,539.47c1.63,2.14,4.06,4.44,6.93,4.37a7.56,7.56,0,0,0,6.83-4.71,1.09,1.09,0,0,0,.29-.28h0a.8.8,0,0,0-.5-1.23c-1.63.21-3,1-4.74,1.2a23.64,23.64,0,0,1-7.12-.34c-.59-.09-1.2-.43-1.79-.21S951.42,539.23,951.85,539.47Zm12.49.13C963,541.4,961,543,958.61,543a6.43,6.43,0,0,1-4.59-2.71A18.61,18.61,0,0,0,964.34,539.6Z" transform="translate(-859.61 -432.53)"/><path class="cls-7" d="M955.08,555a39.47,39.47,0,0,0,15.6-2.74c1.34-.62,3-1.27,4.34-2a.91.91,0,0,0,.33-.37,4.14,4.14,0,0,1,.92.57.62.62,0,0,0,.77-.78c-.09-.28-.34-.42-.5-.65-.92-1.07-2.38-2.71-4-2.22-.88.7-.31,1.36.62,1.95a28.09,28.09,0,0,1-2.62,1.49,30.06,30.06,0,0,1-8.73,2.82,43.93,43.93,0,0,1-9.86,0c-1.18-.9-2.54.27-1.39,1.32A16,16,0,0,0,955.08,555Z" transform="translate(-859.61 -432.53)"/><path class="cls-8" d="M921.79,612.93c-1.65-1.71-4.87-5.13-7.61-8.55-1.59-2-4.16-2.34-6.64-2.06a144.42,144.42,0,0,1,12.75-11.08c-1.08,1.37-2.12,2.76-3.1,4.19-4.58,5.68,1.43,11.9,6.15,15.14C922.8,611.34,922.28,612.13,921.79,612.93Z" transform="translate(-859.61 -432.53)"/><path class="cls-8" d="M929.14,643l-.58,0c-2-.26-4-.56-6.06-.92a78.06,78.06,0,0,1-4.45-11.58,15.78,15.78,0,0,1,.62-10.76,18.85,18.85,0,0,0-.8,5.47C919,632.15,924.33,637.89,929.14,643Z" transform="translate(-859.61 -432.53)"/><path class="cls-8" d="M1000,626a14.93,14.93,0,0,1-.69,7.41c-.68,1.73-1.87,5.43-3.11,9.47q-3.16.55-6.36.91a3.69,3.69,0,0,1,.41-.56c2.15-3.14,4.33-6.29,6.36-9.52A23.76,23.76,0,0,0,1000,626Z" transform="translate(-859.61 -432.53)"/><path class="cls-8" d="M1009.74,603.84a11,11,0,0,0-5.61,2.47c-1.61,1.61-5,5.29-7.69,8.25-.5-.93-1-1.85-1.58-2.76a43.65,43.65,0,0,0,4.67-4.95c2.58-3.3,3.54-6.93.85-10.5-.65-1-1.34-2-2-3A117.47,117.47,0,0,1,1009.74,603.84Z" transform="translate(-859.61 -432.53)"/><path class="cls-9" d="M1012.28,504.6q0,3.51-.14,7c-.69,3.06-1.44,6.1-2.33,9.11a4.93,4.93,0,0,0-.36,1.63c-.34.08-.7.18-1.07.29a13.05,13.05,0,0,0-4,3.06c-.64-2.3-1.29-4.6-1.76-6.94a37.94,37.94,0,0,1-.29-14.13c-1-3.06-2.89-6-2.61-9.32,0-.48,0-1.16-.44-1.42-.9-.81-2.9.64-4.06.81a25.58,25.58,0,0,1-13.42.77c4-2,8.13-4.28,10.77-8,.63-.94-.22-2.3-1.32-1.72-1.21,1.44-3.08,2-4.79,2.68A26.5,26.5,0,0,1,978,490a29.4,29.4,0,0,0,5.55-4.27,22.5,22.5,0,0,0,3.17-4c1.18-1.05,2.06-2.26.92-2.79a1,1,0,0,0-.55.16,27.45,27.45,0,0,1-4.2,2.85c-3,1.53-6.54,1.81-9.75,2.69-5,3.89-11.45,5.43-17.77,5.31a55.32,55.32,0,0,0,5.5-5.54.91.91,0,0,0,.14-.3c.16-.16.31-.32.45-.49a15.42,15.42,0,0,0,3-2,8.21,8.21,0,0,0,1.74-2,.38.38,0,0,0-.05-.44.35.35,0,0,0-.43,0c-1.76.83-3.41,1.91-5.23,2.66-3.64,1.45-7.52,2-11.33,2.84a2,2,0,0,0-1.76,1.25c-5.28,7.15-13.81,11.09-22.2,13.48.92-2.59,2.08-5.1,3-7.69.2-.54.57-1.19.15-1.73-.54-.69-1.44-.23-1.8.4a34.57,34.57,0,0,1-3,3.88,51,51,0,0,1-6.57,6.21c-.4.45-1.28.85-1.89,1.36a1.24,1.24,0,0,0-.68,1.27,56.72,56.72,0,0,1-.44,19.66c-.21,1.52-.53,3-.82,4.54a19.59,19.59,0,0,0-3.79-3.86,63.27,63.27,0,0,1-1.15-11.47c0-6.18,1.52-12.53,5.29-17.44a28.86,28.86,0,0,0-6.4,6.65c-.28-4.09,1.35-8.06,3.12-11.75,6.57-13.72,16.7-27,31.26-31.42,9.73-2.95,20.17-1.59,30.24-.21l-4.94-6c5.72,1.84,11.52,3.72,16.57,7s9.38,8.08,10.69,13.95c-.64,0,0,.28-.59.28A37.29,37.29,0,0,1,1007.29,485a27.8,27.8,0,0,1,3.88,8A41,41,0,0,1,1012.28,504.6Z" transform="translate(-859.61 -432.53)"/></svg>