<svg id="Layer_1" data-name="Layer 1" xmlns="http://www.w3.org/2000/svg" viewBox="0 0 201.09 214.62"><defs><style>.cls-1{fill:#ffdcd2;}.cls-2{fill:#fff4ee;}.cls-3{fill:#ffe2cc;}.cls-4{fill:#ffb9a1;}.cls-5{fill:#c66a2c;}.cls-6{fill:#ffb864;}.cls-7{fill:#f78834;}.cls-8{fill:#ea63a1;}.cls-9{fill:#c94b93;}.cls-10{fill:#440829;}</style></defs><title>icon avtr 2</title><path class="cls-1" d="M859.35,533.08A100.55,100.55,0,1,1,959.9,633.63,100.55,100.55,0,0,1,859.35,533.08" transform="translate(-859.35 -432.53)"/><path class="cls-2" d="M970.6,516.23c-2.82,2-4.17,5.25-4.91,8.57-.17,7.68,4.61,15.4,13.24,14.65,9.07-.72,14.05-8.42,12.64-16.86a16.53,16.53,0,0,0-2.49-3.75A15,15,0,0,0,970.6,516.23ZM976,530.12c-2.45,1.84-4.24-2.47-3.65-4.46a1.7,1.7,0,0,1,3.06-.65C976.49,526.34,977,528.64,976,530.12Z" transform="translate(-859.35 -432.53)"/><path class="cls-3" d="M924.86,523.94a18,18,0,0,1,1.41-3.79c6.06-11.46,26.16-11.46,28.7,2.64,0,.4.18,1.18.28,2l.34-.16c2.32-.91,5.93-1.3,8.2.14.1-.81.24-1.58.27-2,2.54-14.1,22.65-14.1,28.7-2.64a15.69,15.69,0,0,1,1.48,4.2l.36.1c.91.24,1.86.39,2.76.69a44.65,44.65,0,0,0-4.39-19c-4.23-7.95-10-15.32-18.16-19.3a39.36,39.36,0,0,0-18-3.11c-4,.27-7.81,1.92-11.23,3.59-12.83,6.54-22.36,19.58-23.71,33.94a35.54,35.54,0,0,0-.32,4.1c1-.51,2-1,2.83-1.35A1.35,1.35,0,0,1,924.86,523.94Zm55.37-24.15a8.62,8.62,0,0,1,3.52,5.64c0,.48.09,1.16-.41,1.42a.67.67,0,0,1-.79-.16,1.22,1.22,0,0,1-.81-.16c-1.59-.8-3.16-1.65-4.82-2.31-1.51-.82-4.32-.7-4.44-3C972.87,497.63,978.05,497.84,980.23,499.79Zm-45,5.64a8.63,8.63,0,0,1,3.53-5.64c2.17-2,7.35-2.16,7.74,1.48-.12,2.25-2.93,2.13-4.43,3-1.67.66-3.23,1.51-4.82,2.31a1.25,1.25,0,0,1-.82.16.66.66,0,0,1-.78.16C935.19,506.59,935.26,505.91,935.28,505.43Z" transform="translate(-859.35 -432.53)"/><path class="cls-4" d="M963.42,542.14a8.75,8.75,0,0,1-6.62.62c1,.88,2,2.06,3.43,1.92A4.66,4.66,0,0,0,963.42,542.14Z" transform="translate(-859.35 -432.53)"/><path class="cls-5" d="M941.7,500.42a5.61,5.61,0,0,0-5,4.68,25.69,25.69,0,0,1,7.87-3.7C944.27,500.3,942.64,500.32,941.7,500.42Z" transform="translate(-859.35 -432.53)"/><path class="cls-6" d="M957.91,621.33a.35.35,0,0,1-.18,0l-.8-.09c-1.52-.12-3.07-.28-4.66-.52-2-.2-4-.39-6-.61a132.78,132.78,0,0,1-14.54-4.07c-9.33-3.35-18.77-7.48-26.31-14a67.32,67.32,0,0,0-10.79,17.68c-1,2.58-2.11,5.16-2.9,7.82,0,.06,0,.11-.05.17,12,9.22,27.09,12.72,41.77,14.86a226.42,226.42,0,0,0,24.92,2.15c.06-2.79.1-5.59.14-8.38.07-4,.06-8,.17-11.92.09-1,0-2,.12-3h-.18Z" transform="translate(-859.35 -432.53)"/><path class="cls-3" d="M955,577.21a25.43,25.43,0,0,0,7.86.2c.71-.19,1.43-.37,2.14-.5,7.14-1.89,13.88-5.48,18.75-11.08,5.47-6.36,7-14.71,9.46-22.43,1.28-4.45,2.68-8.9,3.93-13.39a13,13,0,0,0,.19-1.93v-.3a4.81,4.81,0,0,1-.83-.21c-.72-.27-1.74-.75-2.45-1.08.06,7.73-6.83,14.88-14.73,15.26-8.17,1-15.66-6.27-15.55-14.19h0l-.15,0a3.62,3.62,0,0,1-1.07-.55c-2.08-1.4-5.61-1.45-7.23-.05.55,8.16-7.15,15.9-15.54,14.82-7.85-.38-14.71-7.46-14.72-15.14l-.24.12c-1,.47-1.88,1-2.81,1.47,1.38,5.29,3,10.53,4.49,15.78,2,6.39,3.82,12.9,7.56,18.45C938.86,569.62,946.42,575.54,955,577.21Zm.09-36.14c.69,0,1.35.5,2,.62a7.41,7.41,0,0,0,4-.1c1.25-.2,2.32-1.08,3.54-1.22,1.18.47.36,2.09-.12,2.83a4.52,4.52,0,0,1-5,2.31,7.42,7.42,0,0,1-3.77-2.76,1,1,0,0,1-.26-.64C955.16,541.91,954.62,541.33,955.08,541.07ZM951,555.2c.7-.19,1,.54.69,1,.31.31.58.7.87,1a8.5,8.5,0,0,0,5.12,2.95A10.72,10.72,0,0,0,968,554.6a.84.84,0,0,1,.11-.21c-.41-.39-.59-.81,0-1.19,1.07-.26,1.75.9,2.27,1.63a.51.51,0,0,1-.71.69,3.09,3.09,0,0,0-.39-.28,5.42,5.42,0,0,1-.42.73c-2.39,3.92-7,6.55-11.61,5.58a9.26,9.26,0,0,1-6.27-3.78l-.28-.4a.8.8,0,0,1-1,.29C949,557,950.26,555.46,951,555.2Z" transform="translate(-859.35 -432.53)"/><path class="cls-7" d="M909.65,601.55c-.36-.34-1.2-1.08-2-1.91a2.53,2.53,0,0,1-.26.23c-.3.31-.58.63-.86.94,7.2,7,16.29,11.3,25.78,14.31C923.69,611.62,915.58,606.9,909.65,601.55Z" transform="translate(-859.35 -432.53)"/><path class="cls-5" d="M977.34,500.42c-.94-.1-2.58-.12-2.87,1a25.58,25.58,0,0,1,7.87,3.7A5.59,5.59,0,0,0,977.34,500.42Z" transform="translate(-859.35 -432.53)"/><path class="cls-2" d="M948.43,516.23A15,15,0,0,0,930,518.84a16.87,16.87,0,0,0-2.49,3.75c-1.4,8.44,3.57,16.14,12.64,16.86,8.64.75,13.42-7,13.24-14.65C952.6,521.48,951.26,518.24,948.43,516.23ZM943,530.12c-1-1.48-.46-3.78.59-5.11a1.71,1.71,0,0,1,3.07.65C947.25,527.65,945.46,532,943,530.12Z" transform="translate(-859.35 -432.53)"/><path class="cls-8" d="M994.32,613.12A77.39,77.39,0,0,1,982,618c0,3.85-.27,7.7-.54,11.54a25.06,25.06,0,0,1-1.21,6.06c-.21,2.29-.74,4.61-2.23,4.09a4,4,0,0,1-.85-2.54,55.41,55.41,0,0,1-.48-13.06c.12-.65.07-3.13.41-4.79a77.28,77.28,0,0,1-16.09,2,9.37,9.37,0,0,1,0,1.29q-.06,4.5-.14,9c-.05,3.86-.12,7.72-.26,11.58,0,.39,0,1-.07,1.54a168,168,0,0,0,18.5-.64,111.08,111.08,0,0,0,14.53-2.24c.23-2.3.59-4.6.66-6.92C994.58,627.68,994.17,620.39,994.32,613.12Z" transform="translate(-859.35 -432.53)"/><path class="cls-8" d="M998.16,582.41c-.77-.59-.28-1.39-.27-2.16a12.34,12.34,0,0,0-1.55-5.57,4.39,4.39,0,0,0-.27-.47c-.85,1.23-1.7,2.46-2.53,3.69-.85,1-1.52,3.25-3.09,2.43a1.18,1.18,0,0,1-.35-1.64c1.72-2.58,3.54-5.12,5.27-7.7,1.25-1.84,2.45-3.71,3.55-5.65a37.67,37.67,0,0,0,2.57-5.61,17.15,17.15,0,0,0,1-6.18c0-1.2,0-2.36,0-3.53.23-.76.64-1.47.93-2.22,4.58-11.4,9.35-23.2,9.28-35.65-.42-7.77-1.19-15.46-4.09-22.68a57.2,57.2,0,0,0-6.2-10.25A44.67,44.67,0,0,0,982,463.72a55.28,55.28,0,0,0-19.73-4.32,2.81,2.81,0,0,0-.46,0l-.74,0-1.36,0h-1a49.42,49.42,0,0,0-13.31,2.35c-9.58,2.92-19.09,7.44-25.73,15.11a49.14,49.14,0,0,0-4.81,7.09c-7.39,13.31-8.49,29.75-5.4,44.49a111.5,111.5,0,0,0,5.77,17.18c.6,1.65,1.17,3.31,1.76,5,.64.05.89,1.21.74,2-1.68,9.06,4.56,16.77,10.49,22.84.44.47.91.93,1.31,1.44a1.19,1.19,0,0,1-1.7,1.62c-1.21-1.25-2.51-2.63-3.82-4.12a2.83,2.83,0,0,0-.67,1,14,14,0,0,0-1.74,5.76,2.89,2.89,0,0,1-.45,1.33c-.44.7-1.39.82-2.1,1-1.21.33-2.4.64-3.54,1.05a14.56,14.56,0,0,0-2.67,1.22c-3.93,2.29-6.14,7.57-4.31,11.83a7.78,7.78,0,0,0,.76.76,61.51,61.51,0,0,0,9,7.09c2.57,1.57,5.28,3.07,8.08,4.44,9.95,5,21.09,8.52,31.84,9.22,11.36.36,22.64-2.46,33-6.92a75.1,75.1,0,0,0,12.95-7.8c2-1.41,3.86-2.89,5.75-4.4.15-.33.41-.64.59-1,1.18-2.2.78-4.85-.18-7.07C1008.21,586.67,1002.64,584.93,998.16,582.41Zm-77.08-27.16c-.39-.57-1.76-3-.71-2.63,1.34,1.14,2.5,2.53,3.8,3.74,2.55,2.4,5.19,5,8,7.49a42.2,42.2,0,0,1-5.48-11.48c-4-12.46-8.09-25.08-9.85-38.09a53.57,53.57,0,0,1,.88-15.21,49.84,49.84,0,0,1,1.43-6.22c.58-1.83,1.26-3.16,1.88-2.44,0,0,0,.09,0,.13.32,1.74-.45,3.55-.63,5.29A73.74,73.74,0,0,0,919,512.3c.21,2.47.56,4.91,1,7.34.28-2.27.76-4.51,1.23-6.65,3.68-13.46,14.51-24.7,27.46-29.68.38-.16.77-.32,1.15-.45a27.38,27.38,0,0,1,10.1-1.59,46.92,46.92,0,0,1,12,1.92c11.51,3.69,19.63,14,24.38,24.7a50.36,50.36,0,0,1,3.08,12.64,72.83,72.83,0,0,0,1.23-9c.47-6.22-.55-12.38-1.81-18.46l-.06-.27c0-.91-.81-3.31.29-3.16a8.55,8.55,0,0,1,1.94,3.94c.24.91.43,1.83.66,2.68a48.85,48.85,0,0,1,1.37,14.85c-.78,12.22-5,23.87-8.39,35.58-1.7,5.76-3.3,11.83-6.43,17,3.82-3.7,7.4-7.68,11-11.53.2-.18.32-.55.64-.48a.34.34,0,0,1,.22.46,12.84,12.84,0,0,1-.69,1.39c-3.88,6.67-9.84,12-15.76,16.8-5.2,4-10.91,7.91-17.41,9a27.41,27.41,0,0,1-9.25.73,17.77,17.77,0,0,1-4.51-1,32.48,32.48,0,0,1-9.82-4.57,54.4,54.4,0,0,1-9.06-6.62C929.19,564,924.53,560.11,921.08,555.25Zm49.45,48.21c-14.85-1.49-28.92-8.69-37.58-21-.29-.29.1-.73.39-.3,3.25,2.9,6.69,5.6,10.13,8.28.23.19.48.35.71.53a35.55,35.55,0,0,0,16.32,2.78,46,46,0,0,0,16.3-4.52c1.75-.84,3.53-1.64,5.32-2.39a.78.78,0,0,1,1,.31.79.79,0,0,1-.29,1.07l-1,.72A23.09,23.09,0,0,1,963,599.14c-.91,0-1.82-.08-2.73-.11A58.87,58.87,0,0,0,984.91,601a67.25,67.25,0,0,0,12.58-4.4.31.31,0,0,1,.3.53A39.08,39.08,0,0,1,970.53,603.46Z" transform="translate(-859.35 -432.53)"/><path class="cls-9" d="M978.91,637.7c.22-.68.43-1.37.6-2.06s.21-1.55.32-2.33l.09-1.43a.21.21,0,0,1,.12-.19c.6-4.48,1.13-9,1.31-13.48-.85.25-1.7.48-2.55.7a26.3,26.3,0,0,1,0,3.66C978.8,627.61,978.75,632.66,978.91,637.7Z" transform="translate(-859.35 -432.53)"/><path class="cls-6" d="M1013.82,602.58c-.47-.65-1.19-1.19-1.69-1.83-1,1.3-3.43,2.78-4,3.45a73.65,73.65,0,0,1-11.76,7.85c0,.2,0,.4.06.59,0,3.54.16,7.08.19,10.62a98.92,98.92,0,0,1-.8,17,6.71,6.71,0,0,0-.14,1.1,120.15,120.15,0,0,0,26.41-9.79c2-1,4.07-2.08,6-3.24-2.84-6.42-5.28-13.2-9.19-19.05A69.24,69.24,0,0,0,1013.82,602.58Z" transform="translate(-859.35 -432.53)"/><path class="cls-9" d="M971.66,596.46a24.83,24.83,0,0,0,8-6.17c-8,4.46-17.47,6.75-26.6,5.47l-1.61-.3a51.85,51.85,0,0,0,7.12,3l3.09.11A23.32,23.32,0,0,0,971.66,596.46Z" transform="translate(-859.35 -432.53)"/><path class="cls-10" d="M942.66,574.54a32.59,32.59,0,0,0,9.82,4.57,17.77,17.77,0,0,0,4.51,1,27.69,27.69,0,0,0,9.25-.73c6.5-1.08,12.21-5,17.4-9,5.92-4.84,11.89-10.13,15.77-16.79a12.83,12.83,0,0,0,.69-1.39.34.34,0,0,0-.22-.47c-.33-.07-.44.3-.64.48-3.61,3.85-7.19,7.83-11,11.53,3.14-5.16,4.73-11.24,6.44-17,3.34-11.69,7.6-23.35,8.38-35.58a48.82,48.82,0,0,0-1.37-14.84c-.61-2.23-.92-4.92-2.6-6.62-1.1-.15-.33,2.25-.29,3.16,1.29,6.16,2.35,12.41,1.87,18.73a72.83,72.83,0,0,1-1.23,9,50.63,50.63,0,0,0-3.07-12.65c-4.76-10.71-12.88-21-24.39-24.69-7.52-2.12-15.9-3-23.26.12-13,5-23.78,16.22-27.46,29.68-.47,2.14-1,4.39-1.23,6.64-.44-2.42-.79-4.86-1-7.33a74.34,74.34,0,0,1,1.35-16.47c.18-1.79,1-3.64.61-5.42-1.41-1.63-3.09,7.31-3.3,8.65a53.64,53.64,0,0,0-.88,15.22c1.76,13,5.86,25.63,9.86,38.1a41.67,41.67,0,0,0,5.47,11.47c-2.76-2.51-5.41-5.09-8-7.49-1.3-1.21-2.45-2.6-3.8-3.74-1-.37.32,2.06.71,2.63,3.45,4.86,8.1,8.72,12.52,12.67A55,55,0,0,0,942.66,574.54Zm-20.84-53.29c1.35-14.36,10.88-27.4,23.71-33.94,3.42-1.67,7.28-3.32,11.23-3.59a39.36,39.36,0,0,1,18,3.11c8.2,4,13.93,11.35,18.16,19.3a44.65,44.65,0,0,1,4.39,19c-.9-.3-1.85-.45-2.76-.69l-.36-.1a15.69,15.69,0,0,0-1.48-4.2c-6-11.46-26.16-11.46-28.7,2.64,0,.39-.17,1.16-.27,2-2.27-1.44-5.88-1-8.2-.14l-.34.16c-.1-.81-.25-1.59-.28-2-2.54-14.1-22.64-14.1-28.7-2.64a18,18,0,0,0-1.41,3.79,1.35,1.35,0,0,0-.53.06c-.82.38-1.87.84-2.83,1.35A35.54,35.54,0,0,1,921.82,521.25Zm57.11,18.2c-8.63.75-13.41-7-13.24-14.65.74-3.32,2.09-6.56,4.91-8.57a15,15,0,0,1,18.48,2.61,16.53,16.53,0,0,1,2.49,3.75C993,531,988,538.73,978.93,539.45ZM953.34,524.8c.18,7.68-4.6,15.4-13.24,14.65-9.07-.72-14-8.42-12.64-16.86a16.87,16.87,0,0,1,2.49-3.75,15,15,0,0,1,18.48-2.61C951.26,518.24,952.6,521.48,953.34,524.8ZM926.44,544c-1.49-5.25-3.11-10.49-4.49-15.78.93-.5,1.86-1,2.81-1.47l.24-.12c0,7.68,6.87,14.76,14.72,15.14,8.39,1.08,16.09-6.66,15.54-14.82,1.62-1.4,5.15-1.35,7.23.05a3.62,3.62,0,0,0,1.07.55l.15,0h0c-.11,7.92,7.38,15.24,15.55,14.19,7.9-.38,14.79-7.53,14.73-15.26.71.33,1.73.81,2.45,1.08a4.81,4.81,0,0,0,.83.21v.3a13,13,0,0,1-.19,1.93c-1.25,4.49-2.65,8.94-3.93,13.39-2.49,7.72-4,16.07-9.46,22.43-4.87,5.6-11.61,9.19-18.75,11.08-.71.13-1.43.31-2.14.5a25.43,25.43,0,0,1-7.86-.2c-8.57-1.67-16.13-7.59-21-14.78C930.26,556.88,928.49,550.37,926.44,544Z" transform="translate(-859.35 -432.53)"/><path class="cls-10" d="M955.43,542.11a1,1,0,0,0,.26.64,7.42,7.42,0,0,0,3.77,2.76,4.52,4.52,0,0,0,5-2.31c.48-.74,1.3-2.36.12-2.83-1.22.14-2.29,1-3.54,1.22a7.41,7.41,0,0,1-4,.1c-.64-.12-1.3-.66-2-.62C954.62,541.33,955.16,541.91,955.43,542.11Zm8,0a4.66,4.66,0,0,1-3.19,2.54c-1.41.14-2.45-1-3.43-1.92A8.75,8.75,0,0,0,963.42,542.14Z" transform="translate(-859.35 -432.53)"/><path class="cls-10" d="M950.72,557.37l.28.4a9.26,9.26,0,0,0,6.27,3.78c4.63,1,9.22-1.66,11.61-5.58a5.42,5.42,0,0,0,.42-.73,3.09,3.09,0,0,1,.39.28.51.51,0,0,0,.71-.69c-.52-.73-1.2-1.89-2.27-1.63-.58.38-.4.8,0,1.19a.84.84,0,0,0-.11.21,10.72,10.72,0,0,1-10.38,5.55,8.5,8.5,0,0,1-5.12-2.95c-.29-.26-.56-.65-.87-1,.29-.5,0-1.23-.69-1s-2,1.79-1.22,2.46A.8.8,0,0,0,950.72,557.37Z" transform="translate(-859.35 -432.53)"/><path class="cls-10" d="M935.7,506.85a.66.66,0,0,0,.78-.16,1.25,1.25,0,0,0,.82-.16c1.59-.8,3.15-1.65,4.82-2.31,1.5-.82,4.31-.7,4.43-3-.39-3.64-5.57-3.43-7.74-1.48a8.63,8.63,0,0,0-3.53,5.64C935.26,505.91,935.19,506.59,935.7,506.85Zm6-6.43c.94-.1,2.57-.12,2.86,1a25.69,25.69,0,0,0-7.87,3.7A5.61,5.61,0,0,1,941.7,500.42Z" transform="translate(-859.35 -432.53)"/><path class="cls-10" d="M943.6,525c-1.05,1.33-1.58,3.63-.59,5.11,2.45,1.84,4.24-2.47,3.66-4.46A1.71,1.71,0,0,0,943.6,525Z" transform="translate(-859.35 -432.53)"/><path class="cls-10" d="M976.92,504.22c1.66.66,3.23,1.51,4.82,2.31a1.22,1.22,0,0,0,.81.16.67.67,0,0,0,.79.16c.5-.26.43-.94.41-1.42a8.62,8.62,0,0,0-3.52-5.64c-2.18-2-7.36-2.16-7.75,1.48C972.6,503.52,975.41,503.4,976.92,504.22Zm.42-3.8a5.59,5.59,0,0,1,5,4.68,25.58,25.58,0,0,0-7.87-3.7C974.76,500.3,976.4,500.32,977.34,500.42Z" transform="translate(-859.35 -432.53)"/><path class="cls-10" d="M972.37,525.66c-.59,2,1.2,6.3,3.65,4.46,1-1.48.47-3.78-.59-5.11A1.7,1.7,0,0,0,972.37,525.66Z" transform="translate(-859.35 -432.53)"/><path class="cls-10" d="M997.48,596.56A67.75,67.75,0,0,1,984.92,601,58.92,58.92,0,0,1,960.23,599c.91,0,1.82.06,2.73.11a23.13,23.13,0,0,0,18.8-10.23c.35-.25.7-.5,1.06-.73a.78.78,0,0,0,.28-1.06.8.8,0,0,0-1-.33q-2.68,1.14-5.33,2.41a45.92,45.92,0,0,1-16.29,4.51,35.55,35.55,0,0,1-16.32-2.78l-.71-.53c-3.44-2.68-6.89-5.38-10.14-8.27-.29-.44-.68,0-.38.3,8.66,12.34,22.72,19.54,37.58,21a39,39,0,0,0,27.26-6.38C998.08,596.88,997.8,596.42,997.48,596.56Zm-46.07-1.1,1.61.3c9.13,1.28,18.6-1,26.6-5.47a24.83,24.83,0,0,1-8,6.17,23.32,23.32,0,0,1-10,2.12l-3.09-.11A51.85,51.85,0,0,1,951.41,595.46Z" transform="translate(-859.35 -432.53)"/><path class="cls-10" d="M1030.1,627.76c-.72-3-2.22-5.78-3.38-8.61a82.08,82.08,0,0,0-5.7-10.82c-.69-.93-5.34-8.18-7.88-9.56a11.53,11.53,0,0,0,.43-2.41c.22-8.35-7.32-13-14.15-15.87.26-2.71-.21-6-2.1-8.09a61,61,0,0,0,5.53-9.59,22.66,22.66,0,0,0,1.55-11c.63-1.72,1.53-3.38,2.16-5.13,4.15-10.9,8.56-22.19,8.55-34a81.45,81.45,0,0,0-3.47-22.11c-5-12.08-14-23-26.35-28a57.67,57.67,0,0,0-21.36-5.34h-.14c-5.87-.73-12,.31-17.66,1.87-11.54,3.3-23.19,8.91-30.32,18.91-9.46,13.36-11.78,30.53-9.54,46.46,1.09,7.6,3.78,14.81,6.64,21.89.85,2.33,1.67,4.7,2.5,7.05-1.56,6.74,2.51,13.63,7.17,19.28-.09.11-.18.21-.25.31-2.11,2.12-2.08,5.08-2.47,7.8-3.91,1-8.22,2-11,5.15-2.47,2.85-4.17,7.41-2.92,11.1a2.42,2.42,0,0,0,.43,1.07,23.06,23.06,0,0,0-4,4.11,72.5,72.5,0,0,0-11,20c-.17.93-1.5,3.46-1.56,5a.69.69,0,0,0-.19.37,2.41,2.41,0,0,0,.95,2,24.43,24.43,0,0,0,3.43,2.64c18.27,11.54,41.26,13.48,62.37,14.82,20.51.9,41.37-1.69,60.23-10.14a98.54,98.54,0,0,0,13.71-7.14A1.11,1.11,0,0,0,1030.1,627.76ZM907.39,599.87a2.53,2.53,0,0,0,.26-.23c.8.83,1.64,1.57,2,1.91,5.93,5.35,14,10.07,22.66,13.57-9.49-3-18.58-7.32-25.78-14.31C906.81,600.5,907.09,600.18,907.39,599.87Zm51.29,24.53c-.11,4-.1,8-.17,11.92,0,2.79-.08,5.59-.14,8.38a226.42,226.42,0,0,1-24.92-2.15c-14.68-2.14-29.79-5.64-41.77-14.86,0-.06,0-.11.05-.17.79-2.66,1.85-5.24,2.9-7.82A67.32,67.32,0,0,1,905.42,602c7.54,6.56,17,10.69,26.31,14a132.78,132.78,0,0,0,14.54,4.07c2,.22,4,.41,6,.61,1.59.24,3.14.4,4.66.52l.8.09a.35.35,0,0,0,.18,0l.71,0h.18C958.68,622.38,958.77,623.43,958.68,624.4Zm-.49-5.38c-13.78-.89-28.2-6.51-39.93-13.66a60.9,60.9,0,0,1-9-7.09,7.65,7.65,0,0,1-.76-.75c-1.83-4.28.38-9.55,4.31-11.84a24.51,24.51,0,0,1,6.22-2.27c.69-.21,1.65-.32,2.09-1a3,3,0,0,0,.46-1.33,13.67,13.67,0,0,1,1.73-5.76,3,3,0,0,1,.67-1c1.3,1.49,2.61,2.87,3.82,4.12a1.19,1.19,0,0,0,1.69-1.62,16,16,0,0,0-1.3-1.43c-5.93-6.08-12.16-13.79-10.49-22.85.15-.77-.11-1.93-.74-2-.59-1.66-1.16-3.32-1.76-5a110,110,0,0,1-5.77-17.17c-3.67-17.49-1.42-37.38,10.21-51.58,6.65-7.67,16.15-12.19,25.72-15.12a49.94,49.94,0,0,1,13.32-2.34h1l1.36,0h.74a2.85,2.85,0,0,1,.47.06A55.54,55.54,0,0,1,982,463.72c12.09,4.27,21.25,14.3,26.66,25.75,2.89,7.22,3.67,14.9,4.08,22.68.08,12.45-4.69,24.25-9.27,35.65-.29.75-.7,1.46-.93,2.23,0,1.16,0,2.31,0,3.52.14,4.26-1.59,8.08-3.6,11.8-2.65,4.63-5.86,8.91-8.82,13.34a1.2,1.2,0,0,0,.34,1.64c1.59.82,2.25-1.47,3.1-2.43.83-1.23,1.69-2.46,2.54-3.69a12.58,12.58,0,0,1,1.81,6c0,.78-.5,1.57.27,2.17,4.48,2.51,10.05,4.25,12.14,9.46,1,2.21,1.37,4.86.18,7.07-.18.32-.44.62-.6.95-5.8,4.66-11.9,9.08-18.69,12.2C980.83,616.57,969.54,619.38,958.19,619Zm20.61-.11c.85-.22,1.7-.45,2.55-.7-.18,4.52-.71,9-1.31,13.48a.21.21,0,0,0-.12.19l-.09,1.43c-.11.78-.21,1.56-.32,2.33s-.38,1.38-.6,2.06c-.16-5-.11-10.09-.07-15.13A26.3,26.3,0,0,0,978.8,618.91Zm15.4,16c-.07,2.32-.43,4.62-.66,6.92A111.08,111.08,0,0,1,979,644.11a168,168,0,0,1-18.5.64c0-.57,0-1.15.07-1.54.14-3.86.21-7.72.26-11.58q.07-4.49.14-9a9.37,9.37,0,0,0,0-1.29,77.28,77.28,0,0,0,16.09-2c-.34,1.66-.29,4.14-.41,4.79a55.41,55.41,0,0,0,.48,13.06,4,4,0,0,0,.85,2.54c1.49.52,2-1.8,2.23-4.09a25.06,25.06,0,0,0,1.21-6.06c.27-3.84.52-7.69.54-11.54a77.39,77.39,0,0,0,12.36-4.91C994.17,620.39,994.58,627.68,994.2,635Zm27.88-3.35a120.15,120.15,0,0,1-26.41,9.79,6.71,6.71,0,0,1,.14-1.1,98.92,98.92,0,0,0,.8-17c0-3.54-.18-7.08-.19-10.62,0-.19,0-.39-.06-.59a73.65,73.65,0,0,0,11.76-7.85c.58-.67,3-2.15,4-3.45.5.64,1.22,1.18,1.69,1.83a69.24,69.24,0,0,1,5.07,6.73c3.91,5.85,6.35,12.63,9.19,19.05C1026.15,629.52,1024.09,630.57,1022.08,631.6Z" transform="translate(-859.35 -432.53)"/><path class="cls-9" d="M920.37,495.83c.18-1.74,1-3.55.63-5.29l.09-.1c.24,1.68-.35,3.36-.39,5.07s.79,3.69,2.46,3.94,3.11-1.49,4.14-2.95a32,32,0,0,1,11.88-10.14,44.57,44.57,0,0,1,10.68-3.5c-.38.13-.77.29-1.15.45-13,5-23.78,16.22-27.46,29.68-.47,2.14-1,4.38-1.23,6.65-.44-2.43-.79-4.87-1-7.34A73.74,73.74,0,0,1,920.37,495.83Z" transform="translate(-859.35 -432.53)"/><path class="cls-9" d="M972,483.19a46.92,46.92,0,0,0-12-1.92,23.87,23.87,0,0,1,8.13.61c10.77,3,21.18,7.53,27.22,16.92.45.7,1.06,1.51,1.9,1.43,1-.11,1.35-1.44,1.4-2.49l.24-4.63c1.26,6.08,2.28,12.24,1.81,18.46a72.83,72.83,0,0,1-1.23,9,50.36,50.36,0,0,0-3.08-12.64C991.6,497.17,983.48,486.88,972,483.19Z" transform="translate(-859.35 -432.53)"/><path class="cls-9" d="M1002,597.32a3.39,3.39,0,0,0,.47-5.44c-1.22-1.62-2.53-3.3-4.4-4.07s-4.14-.47-6-1.37a1.85,1.85,0,0,1-.92-.82,2.11,2.11,0,0,1,0-1.42c1-3.47,3.19-6.44,5.1-9.52a4.39,4.39,0,0,0-.27-.47c-.85,1.23-1.7,2.46-2.53,3.69-.85,1-1.52,3.25-3.09,2.43a1.18,1.18,0,0,1-.35-1.64c1.72-2.58,3.54-5.12,5.27-7.7a54.24,54.24,0,0,1-12.29,7.7c-1.5.69-3.4,1.26-4.69.23,8.15-5.86,16.39-11.82,23.1-19.19a17.15,17.15,0,0,0,1-6.18c0-1.2,0-2.36,0-3.53.23-.76.64-1.47.93-2.22,4.58-11.4,9.35-23.2,9.28-35.65-.42-7.77-1.19-15.46-4.09-22.68a57.2,57.2,0,0,0-6.2-10.25c2.65,5.52,4.38,11.35,3.8,17.38a1.9,1.9,0,0,1-.69,1.54c-.83.49-1.79-.39-2.33-1.18-.76-1.1-1.5-2.21-2.2-3.34.24.91.43,1.83.66,2.68a48.85,48.85,0,0,1,1.37,14.85c-.78,12.22-5,23.87-8.39,35.58-1.7,5.76-3.3,11.83-6.43,17,3.82-3.7,7.4-7.68,11-11.53.2-.18.32-.55.64-.48a.34.34,0,0,1,.22.46,12.84,12.84,0,0,1-.69,1.39c-3.88,6.67-9.84,12-15.76,16.8-5.2,4-10.91,7.91-17.41,9a27.41,27.41,0,0,1-9.25.73,17.77,17.77,0,0,1-4.51-1,32.48,32.48,0,0,1-9.82-4.57,54.4,54.4,0,0,1-9.06-6.62c-4.41-4-9.07-7.81-12.52-12.67-.39-.57-1.76-3-.71-2.63,1.34,1.14,2.5,2.53,3.8,3.74,2.55,2.4,5.19,5,8,7.49a42.2,42.2,0,0,1-5.48-11.48c-4-12.46-8.09-25.08-9.85-38.09a53.57,53.57,0,0,1,.88-15.21,49.84,49.84,0,0,1,1.43-6.22c-2.07,2.9-3.54,6.26-5.29,9.41-.12.19-.24.41-.47.47a.73.73,0,0,1-.75-.36,4.72,4.72,0,0,1-.71-3,50.68,50.68,0,0,1,3-15.49c-7.39,13.31-8.49,29.75-5.4,44.49a111.5,111.5,0,0,0,5.77,17.18c.6,1.65,1.17,3.31,1.76,5,.64.05.89,1.21.74,2-1.68,9.06,4.56,16.77,10.49,22.84.44.47.91.93,1.31,1.44a1.19,1.19,0,0,1-1.7,1.62c-1.21-1.25-2.51-2.63-3.82-4.12a2.83,2.83,0,0,0-.67,1,14,14,0,0,0-1.74,5.76,2.89,2.89,0,0,1-.45,1.33c-.44.7-1.39.82-2.1,1-1.21.33-2.4.64-3.54,1.05a6.63,6.63,0,0,0,5.36-.93,7.25,7.25,0,0,1,2.4-1.51c2-.47,3.54,1.6,4.66,3.32a46,46,0,0,0,15.88,14.3,102.35,102.35,0,0,0,19.89,8.24,78.34,78.34,0,0,1-37.35,1.92c9.95,5,21.09,8.52,31.84,9.22,11.36.36,22.64-2.46,33-6.92a75.1,75.1,0,0,0,12.95-7.8,67.23,67.23,0,0,1-9.29.63C997.24,602.4,999.63,599.85,1002,597.32Zm-31.5,6.14c-14.85-1.49-28.92-8.69-37.58-21-.29-.29.1-.73.39-.3,3.25,2.9,6.69,5.6,10.13,8.28.23.19.48.35.71.53a35.55,35.55,0,0,0,16.32,2.78,46,46,0,0,0,16.3-4.52c1.75-.84,3.53-1.64,5.32-2.39a.78.78,0,0,1,1,.31.79.79,0,0,1-.29,1.07l-1,.72A23.09,23.09,0,0,1,963,599.14c-.91,0-1.82-.08-2.73-.11A58.87,58.87,0,0,0,984.91,601a67.25,67.25,0,0,0,12.58-4.4.31.31,0,0,1,.3.53A39.08,39.08,0,0,1,970.53,603.46Z" transform="translate(-859.35 -432.53)"/></svg>