<svg xmlns="http://www.w3.org/2000/svg" viewBox="0 0 112.36 99.35"><defs><style>.cls-1{fill:#fff;}</style></defs><title>logo smk 2 svg</title><g id="Layer_3" data-name="Layer 3"><path class="cls-1" d="M414.37,821s-.37,13.43,6.74,24.16a37,37,0,0,0,21.58,15.27,36.54,36.54,0,0,0,27.75-4A38.58,38.58,0,0,0,488,835.22c.54-1.63,2.79-9,2.58-14.22a43.1,43.1,0,0,1-14.63,5.22l.1.34,2.39,2-1.85,3.67-4.06.12-1,2.39,1.58,4-3.17,2.9L466,840.16l-2.08,1.2v4.83l-3.52,1.55-3.4-3-2.36.51-1.2,4.28h-4.86l-1.78-4.36-1.78-.58-4.06,3.17-3.36-2V840l-1.16-.7L432,842.1l-3.36-4.29,1.81-3.91-2-2.12-3.48.62-1.54-5.54,2.55-1.23v-3.25a19.66,19.66,0,0,1-6.29-.22c-2.69-.71-5.23-1.5-5.23-1.5Z" transform="translate(-394.74 -762.58)"/><path class="cls-1" d="M432.72,816.84a9,9,0,0,1-3.24,4.16,10.31,10.31,0,0,1-5.67,1.53,18.15,18.15,0,0,1-5.71-.76l-3.75-1.11s-4.56-1.84-7.51-1.64a17.6,17.6,0,0,0-6.81,2s1.93-2.21,2.21-2.5a37,37,0,0,1,4.5-3.78,38,38,0,0,1,7.63-3.82l2-.58a15.68,15.68,0,0,0,8.32,6.07,14.22,14.22,0,0,0,2.52.42,15.41,15.41,0,0,0,5.06-.42,13.73,13.73,0,0,1-3.5.92,15.58,15.58,0,0,1-3.7,0,15.34,15.34,0,0,1-3.9-1c-2.89-1.19-3-2.3-5.09-2.78a8,8,0,0,0-4,.24,10.68,10.68,0,0,0-5.16,3.22s4-.68,6.88,1,7.4,4,12.08,3.11A10.89,10.89,0,0,0,432.72,816.84Z" transform="translate(-394.74 -762.58)"/><path class="cls-1" d="M432.24,816.37s-2.31,1.22-6.7.54-8-4.39-8.63-4.95l-.84-2.12s-2.93-4.45-5.3-6.25a62.09,62.09,0,0,0-6-3.83s-5.52-2.07-7.51-2.12a24.87,24.87,0,0,1,3.91-1.48,24.17,24.17,0,0,1,8-.84c1.33.26,6.57.78,8.65,1.13s2.09.47,2.09.47.83,5,1,5.61a16,16,0,0,0,3.09,5.75,37.45,37.45,0,0,0,7.27,6.43,49.86,49.86,0,0,1-5.64-3.51,21.82,21.82,0,0,1-6.19-7.28c-1.53-3.12-.91-3.5-2.17-4.71-2.31-2.23-6.17-2.14-10.41-2a34.16,34.16,0,0,0-3.88.29s8.42,3,10.58,5.54c3.75,4.4,4.53,7.55,8.73,10.5A17.27,17.27,0,0,0,432.24,816.37Z" transform="translate(-394.74 -762.58)"/><path class="cls-1" d="M419.91,796.92s.39-4.36-.59-6.44-2.35-6.37-4.41-8.41-4.76-4.76-4.76-4.76,4.92,1.61,6.41,2.22,6.19,2.76,7.45,3.52a16.87,16.87,0,0,1,5.09,4.35c1.24,1.91-.09,4.57-.49,5.8a56.49,56.49,0,0,0-.85,6.94,21.65,21.65,0,0,0,2,7.9,45.57,45.57,0,0,0,2.25,4.15s-3.75-3.51-4.65-6.08a23,23,0,0,1-1.16-9.17c.14-5,.91-5.28.45-7.06-.53-2.07-2.35-4.83-8.51-7.22,0,0,3.06,4.75,3.43,8.25s-.12,10.75,1.5,14.22,7,9.06,8.62,9.62c0,0-3.15-.75-6.87-4.72s-3.87-5.5-4.9-7.12S419.91,796.92,419.91,796.92Z" transform="translate(-394.74 -762.58)"/><path class="cls-1" d="M432,812.19s-3-6.27-3-9.15a48.07,48.07,0,0,1,1.52-11.41c1.11-4.3,3.44-8.21,3.44-11.42s-.83-7.46-1.42-8.54a20,20,0,0,1,6.13,7.54,24.25,24.25,0,0,1,1.77,6.54,39.7,39.7,0,0,1,.44,9,32.9,32.9,0,0,1,6.31-6.87c3.66-3,5.76-3.38,8.25-5.75,1.94-1.85,4.26-5,5.31-10.88a32.23,32.23,0,0,1-1.37,15.31,12.64,12.64,0,0,1-3.13,5.19c-1.81,1.72-2.51,1.17-6.93,3.7a31.75,31.75,0,0,0-6.38,4.61,21,21,0,0,0-2.06,2.19s-1.71,2.09-4.63,8.64h0s6-9.74,9.18-11.78,2.88-3.37,12.91-5.84l1.74-4.31s1.8-4.44,1.86-6.76l.6-4.39-.09-5-.35-3.2-1-4.7-.82,3.52s-1.5,3.86-2.08,5.08a22.34,22.34,0,0,1-2.79,3.59l-3.23,3.13L448,784l-5.31,4.55-.69.77-.35-3.42-1.31-4.16-2.15-4.7a55,55,0,0,0-4.51-6.14,29.51,29.51,0,0,0-3.14-2.74,23.21,23.21,0,0,1,1.57,5.51,26.7,26.7,0,0,1-.4,10.23c-.37,1.36-2.17,6.12-2.17,6.12A21.84,21.84,0,0,0,432,812.19Z" transform="translate(-394.74 -762.58)"/><path class="cls-1" d="M431.92,806.39a21.2,21.2,0,0,1-.8-8.83,13.1,13.1,0,0,1,1.34-5.11,21.58,21.58,0,0,0,2.19-4,11.36,11.36,0,0,0,.59-2.29,14.42,14.42,0,0,0-.64-6.15,22.24,22.24,0,0,1,2.33,4.27,23.37,23.37,0,0,1,1.64,7.54,26.22,26.22,0,0,1-.42,6.08,31,31,0,0,1-1.93,6.64,13.66,13.66,0,0,0-1.32-9.79,16.48,16.48,0,0,0-2.24,4.32A16.68,16.68,0,0,0,431.92,806.39Z" transform="translate(-394.74 -762.58)"/><path class="cls-1" d="M436.25,810.89a39.07,39.07,0,0,1,7.75-8.81,24.66,24.66,0,0,1,6.92-4.41,23.68,23.68,0,0,1,8.08-1.59c2.43-.15,13.07-.8,19.58-3.5,3.41-1.41,7.87-4.28,12.05-10.77a32.1,32.1,0,0,1-9.3,16.44,22.17,22.17,0,0,1-8,5.17c-7,2.44-11.17-.78-17.91-.34-4.09.27-10,1.95-16.85,8.74,0,0,7.65-6.09,13.88-6.9s7.47-1.54,21.54,3.61a10.09,10.09,0,0,0,2.57-1.7c1.28-1.15,3.29-3,4.09-3.83s3.27-4,3.54-4.43,2.95-5.46,4-7.41a81,81,0,0,0,4.24-11.71,45.42,45.42,0,0,0,1.07-4.89s-2.3,5.77-4.5,7.57-4.27,4.63-6.87,5.84a52.61,52.61,0,0,1-8.66,2.92c-1.45.29-9.26,1.4-11.44,1.74a71.29,71.29,0,0,0-11,2.18,13.55,13.55,0,0,0-2.12.85,16.91,16.91,0,0,0-4.69,3.72,38.63,38.63,0,0,0-3.53,4.12A43.37,43.37,0,0,0,436.25,810.89Z" transform="translate(-394.74 -762.58)"/><path class="cls-1" d="M438.57,811.82s16.45-8.94,25.81-3.69S479,818,494.25,815.26c0,0-9.75,8.62-20.87,8.87S452,816,446.25,815.48s-11.47-.73-11.47-.73,11,3.29,13.53,4.53,9.39,8,17.94,7.58,6.45.71,13.5-1.62,11.84-4.17,15.85-7.71,8.78-8.92,8.78-8.92a25.6,25.6,0,0,1-14.69,3.67c-8.15-.65-10.25-.79-16.31-4a46.52,46.52,0,0,0-15.44-4.75c-2.06-.06-10.06,2.07-12.13,3.32A34.91,34.91,0,0,0,438.57,811.82Z" transform="translate(-394.74 -762.58)"/></g><g id="Layer_1" data-name="Layer 1"><path class="cls-1" d="M432.72,816.84a8.67,8.67,0,0,1-6.55,5.67,19.88,19.88,0,0,1-9-.68c-1.44-.4-2.89-.83-4.3-1.32a19.14,19.14,0,0,0-4.27-1.09,14.73,14.73,0,0,0-8.43,1.89l-1.55.82,1.09-1.38A30.82,30.82,0,0,1,416.27,810l.19,0,.11.16a15.78,15.78,0,0,0,6.8,5.62,16.09,16.09,0,0,0,8.87.62,16.44,16.44,0,0,1-9-.28,14.54,14.54,0,0,1-4-2.3,18.48,18.48,0,0,1-3.16-3.33l.3.11a30.83,30.83,0,0,0-16.09,10.64l-.46-.56a15.49,15.49,0,0,1,8.85-1.9,19.78,19.78,0,0,1,4.4,1.15c1.41.49,2.82,1,4.25,1.39a19.55,19.55,0,0,0,8.75.87A8.47,8.47,0,0,0,432.72,816.84Z" transform="translate(-394.74 -762.58)"/><path class="cls-1" d="M430.4,814.23a19.57,19.57,0,0,1-2.95-2.34,37,37,0,0,1-2.74-2.58,18.13,18.13,0,0,1-3.91-6.46h0c-.24-1-.46-2-.67-3a12.42,12.42,0,0,1-.29-1.5l-.21-1.52.23.25q-2.93-.47-5.87-.89c-1-.14-2-.3-2.94-.41a26,26,0,0,0-2.93-.13,35.24,35.24,0,0,0-11.51,2.25l-.09-.72a26,26,0,0,1,10.27,3.21,25.69,25.69,0,0,1,8.05,7.12,24.34,24.34,0,0,1,1.49,2.25,12,12,0,0,0,1.51,2.14,14.29,14.29,0,0,0,4.12,3.24,15.15,15.15,0,0,0,10.32,1.34,15.29,15.29,0,0,1-10.49-1,14.67,14.67,0,0,1-4.3-3.25,11.82,11.82,0,0,1-1.6-2.19c-.46-.75-1-1.47-1.5-2.17a25.71,25.71,0,0,0-7.93-6.86,25.27,25.27,0,0,0-10-3.07l-1.7-.15,1.61-.57A35.44,35.44,0,0,1,408.1,795a25.18,25.18,0,0,1,3,.15c1,.11,2,.29,3,.43,2,.28,3.92.63,5.88,1l.2,0,0,.22.18,1.49a12.52,12.52,0,0,0,.25,1.49c.2,1,.39,2,.62,3v0a16.32,16.32,0,0,0,1.51,3.39,22.32,22.32,0,0,0,2.16,3c.82.94,1.74,1.79,2.65,2.66A19,19,0,0,0,430.4,814.23Z" transform="translate(-394.74 -762.58)"/><path class="cls-1" d="M423.84,808.05a13.65,13.65,0,0,1-2.94-5.27,26.24,26.24,0,0,1-1.2-6h0v0a26.75,26.75,0,0,0-.49-5.58,16.64,16.64,0,0,0-2.1-5.14,33.18,33.18,0,0,0-3.13-4.65,19.39,19.39,0,0,0-4-3.82l-1.88-1.27,2.17.64a69.25,69.25,0,0,1,11.06,4.27,34,34,0,0,1,5.15,3,13.5,13.5,0,0,1,2.23,2,4.62,4.62,0,0,1,1.27,2.88h0v0c-.54,1.88-1,3.8-1.36,5.72a30.22,30.22,0,0,0-.62,5.83,18.16,18.16,0,0,0,1.25,5.69,37.66,37.66,0,0,0,2.49,5.35,37.81,37.81,0,0,1-2.68-5.27,17.27,17.27,0,0,1-1.46-5.76,31,31,0,0,1,.5-5.93q.49-2.93,1.27-5.8v0a2.78,2.78,0,0,0-.35-1.22,6.72,6.72,0,0,0-.79-1.15,13,13,0,0,0-2.13-1.92,33.18,33.18,0,0,0-5.06-2.9c-1.76-.85-3.57-1.61-5.39-2.32s-3.68-1.36-5.55-1.91l.29-.64a19.9,19.9,0,0,1,4.15,4,34.54,34.54,0,0,1,3.17,4.76,17.21,17.21,0,0,1,2.05,5.35,27.24,27.24,0,0,1,.38,5.7v0a29.29,29.29,0,0,0,1,5.93A13.82,13.82,0,0,0,423.84,808.05Z" transform="translate(-394.74 -762.58)"/><path class="cls-1" d="M437.84,808.28l3.81-5.3a29.76,29.76,0,0,1,4.55-4.7c.83-.71,1.65-1.42,2.53-2.08a12.3,12.3,0,0,1,2.93-1.5,31.93,31.93,0,0,1,6.38-1.55l-.14.09.2-.31v0a38.22,38.22,0,0,0,4-14,38.74,38.74,0,0,0-1.46-14.48l.59-.08a21,21,0,0,1-2.09,7.88,15.24,15.24,0,0,1-2.13,3.51c-.88,1.05-1.84,2-2.8,3-3.87,3.77-7.94,7.29-12,10.84l-.52.46-.06-.69a29.82,29.82,0,0,0-3.55-11.82,33.65,33.65,0,0,0-7.89-9.56l.41-.31a25.81,25.81,0,0,1,1.26,16.47c-.64,2.75-2.09,5.2-2.82,7.83a28.05,28.05,0,0,0-.7,4.08l-.51,4.13h0a11.8,11.8,0,0,0,.29,2.9l.34,1.42c.15.46.33.92.49,1.38l.51,1.37.25.69.33.66,1.28,2.64L430,808.58l-.34-.65-.27-.69-.53-1.37c-.17-.46-.36-.91-.52-1.37l-.37-1.43a12,12,0,0,1-.35-2.93h0l.44-4.14a27.79,27.79,0,0,1,.63-4.14c.74-2.73,2.16-5.14,2.76-7.84a25.24,25.24,0,0,0-1.33-16.15l-.44-1,.86.71a34.21,34.21,0,0,1,8.09,9.67,30.49,30.49,0,0,1,3.7,12.06l-.57-.23,6-5.37c2-1.8,4-3.59,5.93-5.45,1-.94,1.91-1.88,2.77-2.89a14.3,14.3,0,0,0,2.06-3.35,20.62,20.62,0,0,0,2.08-7.6l.09-1.8.5,1.71a39.68,39.68,0,0,1,1.39,14.7,38.84,38.84,0,0,1-4.17,14.14h0l-.21.31-.05.08h-.1a34.15,34.15,0,0,0-6.3,1.49,12.07,12.07,0,0,0-2.89,1.4c-.87.63-1.71,1.34-2.55,2a29.8,29.8,0,0,0-4.61,4.58Z" transform="translate(-394.74 -762.58)"/><path class="cls-1" d="M436.25,810.89a50.3,50.3,0,0,1,4.93-7.42,36.28,36.28,0,0,1,6.21-6.42,18.43,18.43,0,0,1,3.95-2.15,32.57,32.57,0,0,1,4.3-1.27c1.45-.34,2.9-.68,4.37-1s3-.45,4.43-.62c2.94-.37,5.87-.86,8.77-1.44a32.11,32.11,0,0,0,8.36-2.72,24,24,0,0,0,6.77-5.53,36.78,36.78,0,0,0,4.84-7.35l1.3-2.54-.6,2.79a86.71,86.71,0,0,1-6.58,18.57,39.82,39.82,0,0,1-5.4,8.28,47.82,47.82,0,0,1-3.52,3.46c-.61.56-1.22,1.11-1.84,1.65l-1,.8-.51.38-.27.18-.17.08-.11,0a.62.62,0,0,1-.2,0h.11l-.4.08H474l-.08,0c-2.5-1-5-2-7.54-2.88-.63-.22-1.26-.46-1.89-.62s-1.31-.31-2-.44a31.42,31.42,0,0,0-4-.59,17.29,17.29,0,0,0-4,.38c-1.33.23-2.65.49-3.95.81a15.44,15.44,0,0,0-3.78,1.38l-3.62,1.78,3.59-1.85a15.7,15.7,0,0,1,3.77-1.47c1.3-.35,2.62-.64,3.94-.89a17,17,0,0,1,4-.47,28.68,28.68,0,0,1,4,.53l2,.42c.68.17,1.31.4,1.95.61,2.55.89,5.07,1.85,7.59,2.8h-.15l.4-.08h.1s-.05,0-.05,0l0,0,.1,0,.24-.16.47-.37c.31-.25.62-.52.93-.79q.9-.81,1.8-1.65c1.17-1.14,2.4-2.24,3.45-3.45a39.34,39.34,0,0,0,5.27-8.17,74.33,74.33,0,0,0,3.75-9,77.35,77.35,0,0,0,2.71-9.39l.7.25a37.32,37.32,0,0,1-5,7.48,24.48,24.48,0,0,1-7,5.66,32.59,32.59,0,0,1-8.55,2.75c-2.93.59-5.87,1-8.84,1.38-1.48.16-2.94.31-4.4.57s-2.9.57-4.35.89a32,32,0,0,0-4.26,1.2,17.89,17.89,0,0,0-3.89,2.06,35.94,35.94,0,0,0-6.28,6.23A50.41,50.41,0,0,0,436.25,810.89Z" transform="translate(-394.74 -762.58)"/><path class="cls-1" d="M438.57,811.82a34.68,34.68,0,0,1,15.84-7.59,22.23,22.23,0,0,1,8.86.32,49.39,49.39,0,0,1,8.48,2.67c2.75,1.11,5.33,2.63,8.06,3.61a12.55,12.55,0,0,0,2.09.53,21.6,21.6,0,0,0,2.18.18l4.41.34a27.48,27.48,0,0,0,8.69-.59,20.23,20.23,0,0,0,7.69-3.93l2.23-1.79-1.7,2.3a50.09,50.09,0,0,1-14.34,13.21A45.12,45.12,0,0,1,472.51,827a32,32,0,0,1-9.77-.55,21.28,21.28,0,0,1-4.66-1.56c-1.48-.71-2.86-1.58-4.25-2.42a51.54,51.54,0,0,0-18.05-6.93A51.5,51.5,0,0,1,454,822.14a45,45,0,0,0,4.24,2.34,20.37,20.37,0,0,0,4.57,1.49,31.62,31.62,0,0,0,9.61.42,45,45,0,0,0,18.26-5.91,50,50,0,0,0,14.1-13.05l.53.5a21,21,0,0,1-8,4,28.15,28.15,0,0,1-8.91.58L484,812.2c-.72-.05-1.49-.08-2.24-.2a13.28,13.28,0,0,1-2.19-.57,33.29,33.29,0,0,1-4.08-1.82c-1.33-.65-2.64-1.31-4-1.88a48.92,48.92,0,0,0-8.36-2.73l-1.07-.26-1.09-.17-1.08-.16c-.36,0-.73,0-1.09-.06l-1.1-.05c-.36,0-.73,0-1.09.05l-1.1.07c-.37,0-.73.1-1.09.15A34.5,34.5,0,0,0,438.57,811.82Z" transform="translate(-394.74 -762.58)"/><path class="cls-1" d="M433.92,815.48A17.82,17.82,0,0,0,437.4,829a16.82,16.82,0,0,0,7.47,5.26,17.24,17.24,0,0,0,6,.93c1.25,0,7.31-.18,11.29-4.79a12.85,12.85,0,0,0,2.16-3.57l.09-.35a37.12,37.12,0,0,1-4.71-1.2,43.21,43.21,0,0,1-5.05-2.6s-3-1.79-3.33-1.94a38.9,38.9,0,0,0-3.88-1.85c-.76-.21-3-1.23-4.14-1.52s-2-.67-4-1.13a34.28,34.28,0,0,0-4.93-1l-.36,0Z" transform="translate(-394.74 -762.58)"/><path class="cls-1" d="M476,826.56l2.46,1.9.06,0,0,.08-1.75,3.72-.05.1h-.13l-4.06.22.28-.19-.94,2.42v-.28l1.58,4,.1.24-.19.17-3.17,2.9L470,842l-.21-.07-3.95-1.43.32,0-2.09,1.2.19-.33v5.08l-.22.09-3.52,1.55-.22.1-.18-.16-3.4-3,.33.09-2.36.5.28-.26-1.19,4.29-.08.27h-5.41l-.09-.23-1.78-4.37.23.21-1.78-.57.35-.07L441.14,848l-.2.16-.22-.13-3.36-2-.18-.11v-6l.18.32-1.16-.7h.39l-4.44,2.78-.29.18-.21-.26L428.29,838l-.14-.18.1-.21,1.81-3.9.07.41L428.08,832l.34.11c-1.16.22-2.33.39-3.5.56l-.3,0-.07-.28-1.38-5.58,0-.14.12,0,2.58-1.16,0,.09,0-3h0l0-.28,0,.28h0l.12,3v.06l-.05,0L423.4,827l.09-.2,1.69,5.5-.37-.23c1.16-.24,2.31-.48,3.48-.68l.2,0,.14.15,2,2.12.18.19-.11.23-1.81,3.9-.05-.39,3.36,4.29-.49-.08,4.44-2.78.2-.13.19.12,1.16.7.19.11v6l-.19-.33,3.36,2-.42,0,4.06-3.17.16-.12.19.06,1.77.58.17.06.06.16,1.78,4.36-.34-.23h4.86l-.36.27,1.2-4.29.06-.21.22,0,2.36-.5.19,0,.14.12,3.4,3-.4-.07,3.51-1.54-.22.34v-5.05l.19-.1,2.09-1.2.15-.09.16.06,3.94,1.43-.38.08,3.17-2.9-.1.41-1.58-4-.06-.14.06-.14,1.06-2.37.09-.2h4.25l-.18.12,2-3.62,0,.12Z" transform="translate(-394.74 -762.58)"/><path class="cls-1" d="M414.37,821a44.76,44.76,0,0,0,2.73,15.1,37.66,37.66,0,0,0,7.68,13.14,36.27,36.27,0,0,0,42.11,8.6,39.89,39.89,0,0,0,6.66-3.8c.52-.37,1-.74,1.53-1.15l1.46-1.24a31.4,31.4,0,0,0,2.75-2.66,39.21,39.21,0,0,0,8-13,46.33,46.33,0,0,0,3.26-15A46.62,46.62,0,0,1,488,836.27a40,40,0,0,1-8.13,13.23,31.25,31.25,0,0,1-2.81,2.71l-1.49,1.27c-.5.41-1,.79-1.56,1.18a41.66,41.66,0,0,1-6.78,3.87,37,37,0,0,1-43-8.78,38.43,38.43,0,0,1-7.84-13.41A43.47,43.47,0,0,1,414.37,821Z" transform="translate(-394.74 -762.58)"/></g></svg>